<svg viewBox="0 0 24 24" xmlns="http://www.w3.org/2000/svg">
<path fill-rule="evenodd" clip-rule="evenodd" d="M2.39999 6C2.39999 5.36348 2.65285 4.75303 3.10294 4.30294C3.55302 3.85285 4.16347 3.6 4.79999 3.6H14.4C15.0365 3.6 15.647 3.85285 16.097 4.30294C16.5471 4.75303 16.8 5.36348 16.8 6V18C16.8 18.6365 17.0529 19.247 17.5029 19.6971C17.953 20.1471 18.5635 20.4 19.2 20.4H4.79999C4.16347 20.4 3.55302 20.1471 3.10294 19.6971C2.65285 19.247 2.39999 18.6365 2.39999 18V6ZM5.99999 7.2H13.2V12H5.99999V7.2ZM13.2 14.4H5.99999V16.8H13.2V14.4Z" fill="currentColor"/>
<path d="M18 8.4H19.2C19.8365 8.4 20.447 8.65285 20.8971 9.10294C21.3471 9.55303 21.6 10.1635 21.6 10.8V17.4C21.6 17.8774 21.4104 18.3352 21.0728 18.6728C20.7352 19.0104 20.2774 19.2 19.8 19.2C19.3226 19.2 18.8648 19.0104 18.5272 18.6728C18.1896 18.3352 18 17.8774 18 17.4V8.4Z" fill="currentColor"/>
</svg>
