<svg viewBox="0 0 24 24" xmlns="http://www.w3.org/2000/svg">
<path fill-rule="evenodd" clip-rule="evenodd" d="M7.47836 5.84515C7.24995 5.75054 6.99861 5.72579 6.75614 5.77402C6.51366 5.82225 6.29093 5.9413 6.11612 6.11612C5.9413 6.29093 5.82225 6.51366 5.77402 6.75614C5.72579 6.99861 5.75054 7.24995 5.84515 7.47836C5.93976 7.70676 6.09998 7.90199 6.30554 8.03934C6.5111 8.17669 6.75277 8.25 7 8.25H8.25V7C8.25 6.75277 8.17669 6.5111 8.03934 6.30554C7.90199 6.09998 7.70676 5.93976 7.47836 5.84515ZM9.75 8.25V7C9.75 6.4561 9.58872 5.92442 9.28654 5.47218C8.98437 5.01995 8.55488 4.66747 8.05238 4.45933C7.54988 4.25119 6.99695 4.19673 6.4635 4.30284C5.93006 4.40895 5.44005 4.67086 5.05546 5.05546C4.67086 5.44005 4.40895 5.93006 4.30284 6.4635C4.19673 6.99695 4.25119 7.54988 4.45933 8.05238C4.66747 8.55488 5.01995 8.98437 5.47218 9.28654C5.92442 9.58872 6.4561 9.75 7 9.75H8.25V14.25H7C6.4561 14.25 5.92442 14.4113 5.47218 14.7135C5.01995 15.0156 4.66747 15.4451 4.45933 15.9476C4.25119 16.4501 4.19673 17.0031 4.30284 17.5365C4.40895 18.0699 4.67086 18.5599 5.05546 18.9445C5.44005 19.3291 5.93005 19.5911 6.4635 19.6972C6.99695 19.8033 7.54988 19.7488 8.05238 19.5407C8.55488 19.3325 8.98437 18.9801 9.28654 18.5278C9.58872 18.0756 9.75 17.5439 9.75 17V15.75H14.25V17C14.25 17.5439 14.4113 18.0756 14.7135 18.5278C15.0156 18.9801 15.4451 19.3325 15.9476 19.5407C16.4501 19.7488 17.0031 19.8033 17.5365 19.6972C18.0699 19.5911 18.56 19.3291 18.9445 18.9445C19.3291 18.56 19.5911 18.0699 19.6972 17.5365C19.8033 17.0031 19.7488 16.4501 19.5407 15.9476C19.3325 15.4451 18.9801 15.0156 18.5278 14.7135C18.0756 14.4113 17.5439 14.25 17 14.25H15.75V9.75H17C17.5439 9.75 18.0756 9.58872 18.5278 9.28654C18.9801 8.98437 19.3325 8.55488 19.5407 8.05238C19.7488 7.54988 19.8033 6.99695 19.6972 6.4635C19.5911 5.93005 19.3291 5.44005 18.9445 5.05546C18.5599 4.67086 18.0699 4.40895 17.5365 4.30284C17.0031 4.19673 16.4501 4.25119 15.9476 4.45933C15.4451 4.66747 15.0156 5.01995 14.7135 5.47218C14.4113 5.92442 14.25 6.4561 14.25 7V8.25H9.75ZM9.75 9.75V14.25H14.25V9.75H9.75ZM15.75 8.25H17C17.2472 8.25 17.4889 8.17669 17.6945 8.03934C17.9 7.90199 18.0602 7.70676 18.1549 7.47836C18.2495 7.24995 18.2742 6.99861 18.226 6.75614C18.1778 6.51366 18.0587 6.29093 17.8839 6.11612C17.7091 5.9413 17.4863 5.82225 17.2439 5.77402C17.0014 5.72579 16.7501 5.75054 16.5216 5.84515C16.2932 5.93976 16.098 6.09998 15.9607 6.30554C15.8233 6.5111 15.75 6.75278 15.75 7V8.25ZM15.75 15.75V17C15.75 17.2472 15.8233 17.4889 15.9607 17.6945C16.098 17.9 16.2932 18.0602 16.5216 18.1549C16.7501 18.2495 17.0014 18.2742 17.2439 18.226C17.4863 18.1778 17.7091 18.0587 17.8839 17.8839C18.0587 17.7091 18.1778 17.4863 18.226 17.2439C18.2742 17.0014 18.2495 16.7501 18.1549 16.5216C18.0602 16.2932 17.9 16.098 17.6945 15.9607C17.4889 15.8233 17.2472 15.75 17 15.75H15.75ZM8.25 15.75H7C6.75278 15.75 6.5111 15.8233 6.30554 15.9607C6.09998 16.098 5.93976 16.2932 5.84515 16.5216C5.75054 16.7501 5.72579 17.0014 5.77402 17.2439C5.82225 17.4863 5.9413 17.7091 6.11612 17.8839C6.29093 18.0587 6.51366 18.1778 6.75614 18.226C6.99861 18.2742 7.24995 18.2495 7.47836 18.1549C7.70676 18.0602 7.90199 17.9 8.03934 17.6945C8.17669 17.4889 8.25 17.2472 8.25 17V15.75Z" fill="currentColor"/>
</svg>
