<svg viewBox="0 0 24 24" xmlns="http://www.w3.org/2000/svg">
<path d="M19.906 9C20.288 9 20.655 9.057 21 9.162V9C21 8.20435 20.6839 7.44129 20.1213 6.87868C19.5587 6.31607 18.7957 6 18 6H14.121C13.9222 5.99982 13.7315 5.92069 13.591 5.78L11.47 3.66C11.2612 3.45089 11.0132 3.28497 10.7402 3.17173C10.4672 3.05848 10.1746 3.00013 9.87901 3H6.00001C5.20436 3 4.4413 3.31607 3.87869 3.87868C3.31608 4.44129 3.00001 5.20435 3.00001 6V9.162C3.35468 9.05431 3.72334 8.99972 4.09401 9H19.906ZM4.09401 10.5C3.7717 10.5001 3.45316 10.5694 3.15996 10.7032C2.86676 10.8371 2.60575 11.0324 2.39458 11.2759C2.18341 11.5194 2.02703 11.8054 1.93601 12.1146C1.84498 12.4238 1.82145 12.7489 1.86701 13.068L2.72401 19.068C2.80055 19.6041 3.0679 20.0947 3.47699 20.4496C3.88607 20.8045 4.40944 20.9999 4.95101 21H19.05C19.5916 20.9999 20.1149 20.8045 20.524 20.4496C20.9331 20.0947 21.2005 19.6041 21.277 19.068L22.134 13.068C22.1796 12.7489 22.156 12.4238 22.065 12.1146C21.974 11.8054 21.8176 11.5194 21.6064 11.2759C21.3953 11.0324 21.1343 10.8371 20.8411 10.7032C20.5479 10.5694 20.2293 10.5001 19.907 10.5H4.09401Z" fill="currentColor"/>
</svg>
