<svg viewBox="0 0 24 24" xmlns="http://www.w3.org/2000/svg">
<path fill-rule="evenodd" clip-rule="evenodd" d="M12.0001 2C6.47795 2 2 6.59026 2 12.2531C2 16.7833 4.86534 20.6267 8.83867 21.9824C9.33844 22.0773 9.52194 21.76 9.52194 21.4892C9.52194 21.2447 9.51268 20.437 9.50838 19.5803C6.72633 20.2005 6.13927 18.3704 6.13927 18.3704C5.68438 17.1854 5.02894 16.8702 5.02894 16.8702C4.12163 16.2338 5.09734 16.2469 5.09734 16.2469C6.10152 16.319 6.63027 17.3035 6.63027 17.3035C7.52218 18.871 8.96967 18.4179 9.54031 18.1559C9.63007 17.4934 9.88926 17.0407 10.1752 16.7848C7.95407 16.5255 5.61913 15.6464 5.61913 11.7176C5.61913 10.5982 6.00978 9.6835 6.64947 8.96545C6.54565 8.70702 6.20334 7.66436 6.74636 6.25205C6.74636 6.25205 7.58608 5.97648 9.4971 7.30305C10.2948 7.07588 11.1503 6.96192 12.0001 6.95806C12.85 6.96192 13.7061 7.07588 14.5052 7.30305C16.4139 5.97648 17.2525 6.25205 17.2525 6.25205C17.7969 7.66436 17.4544 8.70702 17.3506 8.96545C17.9918 9.6835 18.3798 10.5982 18.3798 11.7176C18.3798 15.6556 16.0403 16.5228 13.8136 16.7767C14.1723 17.0948 14.4918 17.7188 14.4918 18.6754C14.4918 20.0472 14.4803 21.1513 14.4803 21.4892C14.4803 21.762 14.6602 22.0817 15.1671 21.981C19.1384 20.6238 22 16.7818 22 12.2531C22 6.59026 17.5228 2 12.0001 2Z" fill="currentColor"/>
</svg>
