<svg viewBox="0 0 24 24" xmlns="http://www.w3.org/2000/svg">
<path d="M11.47 3.84C11.6106 3.69955 11.8012 3.62066 12 3.62066C12.1987 3.62066 12.3894 3.69955 12.53 3.84L21.22 12.53C21.2886 12.6037 21.3715 12.6628 21.4634 12.7038C21.5554 12.7448 21.6548 12.7668 21.7555 12.7686C21.8562 12.7704 21.9562 12.7518 22.0496 12.7141C22.143 12.6764 22.2278 12.6203 22.299 12.549C22.3702 12.4778 22.4264 12.393 22.4641 12.2996C22.5018 12.2062 22.5204 12.1062 22.5186 12.0055C22.5168 11.9048 22.4948 11.8055 22.4538 11.7135C22.4128 11.6215 22.3537 11.5387 22.28 11.47L13.591 2.78C13.3821 2.57106 13.134 2.40533 12.861 2.29225C12.588 2.17918 12.2955 2.12098 12 2.12098C11.7045 2.12098 11.4119 2.17918 11.1389 2.29225C10.866 2.40533 10.6179 2.57106 10.409 2.78L1.71899 11.47C1.58244 11.6115 1.50693 11.801 1.50873 11.9977C1.51053 12.1943 1.5895 12.3824 1.72862 12.5214C1.86774 12.6604 2.05589 12.7391 2.25254 12.7408C2.44919 12.7424 2.6386 12.6667 2.77999 12.53L11.47 3.84Z" fill="currentColor"/>
<path d="M12 5.432L20.159 13.591C20.189 13.621 20.219 13.649 20.25 13.677V19.875C20.25 20.91 19.41 21.75 18.375 21.75H15C14.8011 21.75 14.6103 21.671 14.4697 21.5303C14.329 21.3897 14.25 21.1989 14.25 21V16.5C14.25 16.3011 14.171 16.1103 14.0303 15.9697C13.8897 15.829 13.6989 15.75 13.5 15.75H10.5C10.3011 15.75 10.1103 15.829 9.96966 15.9697C9.82901 16.1103 9.74999 16.3011 9.74999 16.5V21C9.74999 21.1989 9.67097 21.3897 9.53032 21.5303C9.38967 21.671 9.1989 21.75 8.99999 21.75H5.62499C5.12771 21.75 4.65079 21.5525 4.29916 21.2008C3.94753 20.8492 3.74999 20.3723 3.74999 19.875V13.677C3.7811 13.6492 3.81145 13.6205 3.84099 13.591L12 5.43V5.432Z" fill="currentColor"/>
</svg>
