<svg viewBox="0 0 24 24" xmlns="http://www.w3.org/2000/svg">
<path d="M6.97886 2.45256C8.41966 1.34803 10.1846 0.749592 12 0.75C13.8155 0.749592 15.5804 1.34803 17.0212 2.45256C18.462 3.55709 19.4982 5.10602 19.9693 6.8593C20.4404 8.61258 20.32 10.4723 19.6268 12.1502C18.9335 13.8281 17.7062 15.2305 16.135 16.14C15.449 16.538 15.021 17.148 15.001 17.763C14.9958 17.9277 14.9364 18.0861 14.8321 18.2138C14.7278 18.3414 14.5844 18.4311 14.424 18.469C14.072 18.552 13.714 18.617 13.35 18.664C13.027 18.705 12.75 18.446 12.75 18.119V13.459C13.066 13.4239 13.3792 13.3665 13.687 13.287C13.7848 13.2648 13.8771 13.2231 13.9586 13.1646C14.04 13.106 14.1088 13.0317 14.161 12.9461C14.2133 12.8605 14.2478 12.7653 14.2625 12.6661C14.2773 12.5669 14.272 12.4657 14.247 12.3686C14.222 12.2715 14.1777 12.1804 14.1169 12.1007C14.056 12.0209 13.9798 11.9542 13.8927 11.9045C13.8057 11.8547 13.7095 11.8229 13.6099 11.811C13.5103 11.7991 13.4094 11.8072 13.313 11.835C12.4518 12.057 11.5483 12.057 10.687 11.835C10.5916 11.8104 10.4923 11.8049 10.3948 11.8187C10.2972 11.8326 10.2034 11.8655 10.1185 11.9156C10.0337 11.9657 9.95959 12.032 9.90039 12.1107C9.84119 12.1895 9.79808 12.2791 9.77353 12.3745C9.74897 12.4699 9.74344 12.5692 9.75727 12.6668C9.77109 12.7643 9.80399 12.8582 9.85408 12.943C9.90418 13.0278 9.9705 13.1019 10.0492 13.1611C10.128 13.2203 10.2176 13.2634 10.313 13.288C10.6209 13.3671 10.934 13.4243 11.25 13.459V18.12C11.25 18.446 10.973 18.705 10.65 18.664C10.286 18.617 9.92803 18.552 9.57603 18.469C9.41564 18.4311 9.27222 18.3414 9.16792 18.2138C9.06363 18.0861 9.00427 17.9277 8.99903 17.763C8.98003 17.148 8.55103 16.538 7.86503 16.14C6.29383 15.2305 5.06651 13.8281 4.37329 12.1502C3.68007 10.4723 3.55967 8.61258 4.03074 6.8593C4.50182 5.10602 5.53806 3.55709 6.97886 2.45256Z" fill="currentColor"/>
<path d="M9.12267 19.6285C9.06865 19.7109 9.03139 19.8031 9.01303 19.8999C8.97614 20.0953 9.0183 20.2972 9.13024 20.4615C9.24218 20.6257 9.41475 20.7388 9.61003 20.7759C11.1893 21.0756 12.8108 21.0756 14.39 20.7759C14.4891 20.7601 14.5839 20.7245 14.669 20.6713C14.754 20.6181 14.8275 20.5484 14.8852 20.4663C14.9428 20.3842 14.9834 20.2913 15.0045 20.1933C15.0256 20.0952 15.0268 19.9939 15.0081 19.8953C14.9894 19.7968 14.951 19.703 14.8954 19.6195C14.8398 19.536 14.768 19.4646 14.6843 19.4093C14.6005 19.3541 14.5066 19.3162 14.4079 19.298C14.3093 19.2797 14.208 19.2814 14.11 19.3029C12.7158 19.5675 11.2843 19.5675 9.89003 19.3029C9.79324 19.2845 9.69378 19.2854 9.59732 19.3054C9.50086 19.3255 9.40929 19.3643 9.32785 19.4197C9.2464 19.4752 9.17668 19.5461 9.12267 19.6285Z" fill="currentColor"/>
<path d="M9.84065 22.0644C9.7937 22.151 9.76427 22.246 9.75403 22.3439C9.74378 22.4419 9.75292 22.5409 9.78095 22.6354C9.80897 22.7298 9.85532 22.8178 9.91735 22.8943C9.97938 22.9708 10.0559 23.0344 10.1425 23.0813C10.2291 23.1283 10.3241 23.1577 10.422 23.1679C11.4712 23.2778 12.5289 23.2778 13.578 23.1679C13.7759 23.1473 13.9574 23.0488 14.0827 22.8943C14.208 22.7398 14.2667 22.5418 14.246 22.3439C14.2253 22.1461 14.1269 21.9646 13.9724 21.8393C13.8178 21.714 13.6199 21.6553 13.422 21.6759C12.4766 21.7747 11.5235 21.7747 10.578 21.6759C10.4801 21.6657 10.381 21.6748 10.2866 21.7029C10.1922 21.7309 10.1042 21.7772 10.0277 21.8393C9.95115 21.9013 9.8876 21.9778 9.84065 22.0644Z" fill="currentColor"/>
</svg>
