<svg viewBox="0 0 24 24" xmlns="http://www.w3.org/2000/svg">
<path fill-rule="evenodd" clip-rule="evenodd" d="M13.4697 4.46967C14.2734 3.66597 15.3634 3.21446 16.5 3.21446C17.6366 3.21446 18.7266 3.66597 19.5303 4.46967C20.334 5.27336 20.7855 6.3634 20.7855 7.5C20.7855 8.63659 20.334 9.72663 19.5303 10.5303L15.5329 14.5277C15.1378 14.9303 14.6665 15.2501 14.1464 15.4686C13.6252 15.6877 13.0654 15.8005 12.5 15.8005C11.9346 15.8005 11.3749 15.6877 10.8536 15.4686C10.3323 15.2496 9.86001 14.9288 9.4643 14.5249C9.17441 14.229 9.17925 13.7542 9.47512 13.4643C9.77099 13.1744 10.2458 13.1792 10.5357 13.4751C10.7918 13.7364 11.0974 13.944 11.4347 14.0858C11.772 14.2275 12.1342 14.3005 12.5 14.3005C12.8659 14.3005 13.228 14.2275 13.5653 14.0858C13.9026 13.944 14.2083 13.7364 14.4643 13.4751L14.4697 13.4696L18.4697 9.46967C18.9921 8.94728 19.2855 8.23877 19.2855 7.5C19.2855 6.76123 18.9921 6.05272 18.4697 5.53033C17.9473 5.00794 17.2388 4.71446 16.5 4.71446C15.7612 4.71446 15.0527 5.00794 14.5303 5.53033L14.0303 6.03033C13.7374 6.32322 13.2626 6.32322 12.9697 6.03033C12.6768 5.73743 12.6768 5.26256 12.9697 4.96967L13.4697 4.46967Z" fill="currentColor"/>
<path fill-rule="evenodd" clip-rule="evenodd" d="M9.85359 8.53135C10.3749 8.31231 10.9346 8.19949 11.5 8.19949C12.0654 8.19949 12.6252 8.31231 13.1464 8.53135C13.6677 8.75039 14.14 9.07124 14.5357 9.47511C14.8256 9.77097 14.8208 10.2458 14.5249 10.5357C14.229 10.8256 13.7542 10.8208 13.4643 10.5249C13.2083 10.2636 12.9026 10.056 12.5653 9.91422C12.228 9.77249 11.8659 9.69949 11.5 9.69949C11.1342 9.69949 10.772 9.77249 10.4347 9.91422C10.0974 10.056 9.79177 10.2636 9.53573 10.5249L9.53037 10.5304L5.53034 14.5303C5.00795 15.0527 4.71448 15.7612 4.71448 16.5C4.71448 17.2388 5.00795 17.9473 5.53034 18.4697C6.05273 18.9921 6.76124 19.2855 7.50001 19.2855C8.23878 19.2855 8.94729 18.9921 9.46968 18.4697L9.96968 17.9697C10.2626 17.6768 10.7374 17.6768 11.0303 17.9697C11.3232 18.2626 11.3232 18.7374 11.0303 19.0303L10.5303 19.5303C9.72665 20.334 8.63661 20.7855 7.50001 20.7855C6.36342 20.7855 5.27337 20.334 4.46968 19.5303C3.66599 18.7266 3.21448 17.6366 3.21448 16.5C3.21448 15.3634 3.66599 14.2734 4.46968 13.4697L8.46712 9.47223C8.86225 9.06971 9.33357 8.74987 9.85359 8.53135Z" fill="currentColor"/>
</svg>
