<svg viewBox="0 0 24 24" xmlns="http://www.w3.org/2000/svg">
<path fill-rule="evenodd" clip-rule="evenodd" d="M19.952 1.651C20.0447 1.72097 20.1198 1.81149 20.1715 1.91543C20.2232 2.01937 20.2501 2.1339 20.25 2.25V16.303C20.2499 16.9549 20.0374 17.5889 19.6448 18.1093C19.2522 18.6296 18.7008 19.008 18.074 19.187L16.754 19.564C16.4302 19.6612 16.0903 19.6931 15.754 19.6579C15.4177 19.6226 15.0918 19.5209 14.7952 19.3587C14.4985 19.1965 14.2371 18.977 14.026 18.7129C13.8148 18.4488 13.6583 18.1454 13.5654 17.8203C13.4725 17.4952 13.4451 17.1549 13.4847 16.8192C13.5244 16.4834 13.6304 16.1589 13.7965 15.8644C13.9626 15.5699 14.1856 15.3114 14.4524 15.1038C14.7193 14.8961 15.0247 14.7436 15.351 14.655L17.662 13.995C17.9754 13.9055 18.2511 13.7163 18.4474 13.4561C18.6437 13.196 18.7499 12.8789 18.75 12.553V6.994L9.75001 9.566V19.303C9.74987 19.9549 9.53743 20.5889 9.14482 21.1093C8.7522 21.6296 8.20079 22.008 7.57401 22.187L6.25401 22.564C5.92977 22.6625 5.58917 22.6955 5.25205 22.661C4.91494 22.6266 4.58806 22.5253 4.29048 22.3632C3.9929 22.2011 3.73057 21.9814 3.51878 21.7168C3.307 21.4523 3.15 21.1482 3.05694 20.8224C2.96388 20.4965 2.93662 20.1554 2.97675 19.8189C3.01688 19.4824 3.1236 19.1573 3.29069 18.8625C3.45777 18.5677 3.68188 18.3091 3.94994 18.1018C4.218 17.8944 4.52465 17.7426 4.85201 17.655L7.16201 16.995C7.4754 16.9055 7.75111 16.7163 7.94741 16.4561C8.14372 16.196 8.24994 15.8789 8.25001 15.553V9.017V5.25C8.25004 5.08704 8.30315 4.92852 8.4013 4.79843C8.49946 4.66834 8.63731 4.57376 8.79401 4.529L19.294 1.529C19.4056 1.497 19.5232 1.49137 19.6374 1.51254C19.7516 1.53371 19.8593 1.58111 19.952 1.651Z" fill="currentColor"/>
</svg>
