<svg viewBox="0 0 24 24" xmlns="http://www.w3.org/2000/svg">
<path d="M19 5.9804V1.8624C19 1.28194 18.5066 0.90957 17.9213 1.01909L12.023 2.24573C11.2885 2.39906 10.8869 2.78238 10.8869 3.3957L10.9098 15.5745C10.9672 16.1111 10.7033 16.4616 10.1984 16.5602L8.37377 16.9216C6.07869 17.3816 5 18.4987 5 20.1524C5 21.8281 6.3541 23 8.25902 23C9.9459 23 12.4705 21.8172 12.4705 18.6301V8.60891C12.4705 8.02845 12.5852 7.90798 13.1246 7.79845L18.3689 6.70324C18.759 6.62658 19 6.34182 19 5.9804Z" fill="currentColor"/>
</svg>
