<svg viewBox="0 0 24 24" xmlns="http://www.w3.org/2000/svg">
<path fill-rule="evenodd" clip-rule="evenodd" d="M20.599 1.5C20.223 1.5 19.856 1.611 19.544 1.82L14.464 5.205C13.1893 6.05509 12.0236 7.05823 10.993 8.192C13.1099 9.1871 14.8129 10.8901 15.808 13.007C16.9418 11.9761 17.945 10.8101 18.795 9.535L22.181 4.456C22.3717 4.16961 22.4811 3.83687 22.4976 3.49321C22.5141 3.14956 22.437 2.80787 22.2747 2.50453C22.1123 2.20119 21.8708 1.94756 21.5757 1.77067C21.2806 1.59377 20.943 1.50023 20.599 1.5ZM12.299 15.525C12.9545 15.1609 13.5877 14.7579 14.195 14.318C13.7914 13.2971 13.1826 12.3699 12.4064 11.5936C11.6301 10.8174 10.7029 10.2086 9.682 9.805C9.24214 10.412 8.83909 11.0448 8.475 11.7L8.19699 12.2C9.05314 12.4463 9.83269 12.9061 10.4625 13.5361C11.0924 14.1661 11.5519 14.9458 11.798 15.802L12.3 15.524L12.299 15.525ZM6.75 13.5C5.75543 13.5 4.80161 13.8951 4.09834 14.5983C3.39508 15.3016 3 16.2554 3 17.25C3.00005 17.4555 2.95787 17.6589 2.87607 17.8474C2.79427 18.036 2.67459 18.2057 2.52447 18.3461C2.37435 18.4864 2.19698 18.5944 2.00338 18.6634C1.80977 18.7324 1.60405 18.7608 1.399 18.747C1.26341 18.7379 1.12789 18.7658 1.00693 18.8277C0.885968 18.8896 0.784102 18.9833 0.712218 19.0986C0.640334 19.2139 0.601133 19.3466 0.598804 19.4825C0.596475 19.6183 0.631106 19.7523 0.698995 19.87C1.27589 20.8722 2.16751 21.6558 3.23543 22.0994C4.30335 22.5429 5.48783 22.6214 6.60495 22.3227C7.72207 22.0241 8.70933 21.3649 9.41346 20.4477C10.1176 19.5304 10.4992 18.4064 10.499 17.25C10.499 16.7575 10.402 16.2699 10.2135 15.8149C10.0251 15.36 9.74886 14.9466 9.40065 14.5983C9.05243 14.2501 8.63903 13.9739 8.18406 13.7855C7.72909 13.597 7.24245 13.5 6.75 13.5Z" fill="currentColor"/>
</svg>
