<svg viewBox="0 0 24 24" xmlns="http://www.w3.org/2000/svg">
<path d="M3.41181 15.8465C3.27259 15.9857 3.17757 16.1629 3.13863 16.3559L2.29772 20.5242C2.15632 21.2251 2.77485 21.8437 3.47575 21.7022L7.64332 20.8614C7.83625 20.8224 8.01341 20.7274 8.15259 20.5883L17.7669 10.9754C18.1575 10.5849 18.1575 9.95172 17.767 9.56117L14.4396 6.23374C14.0491 5.84323 13.4159 5.84322 13.0254 6.23372L3.41181 15.8465ZM5.44458 17.5842C5.24914 17.7794 4.93254 17.7794 4.73712 17.5842V17.5842C4.54134 17.3887 4.54137 17.0714 4.73717 16.8758L13.3129 8.31242C13.5083 8.11728 13.8249 8.11739 14.0202 8.31267V8.31267C14.2156 8.50814 14.2155 8.82509 14.0199 9.02042L5.44458 17.5842ZM21.2929 6.03398C21.6834 6.42438 21.6836 7.05745 21.2933 7.44806L20.3597 8.38233C19.9692 8.77311 19.3358 8.7732 18.9451 8.38252L15.6177 5.05448C15.2273 4.664 15.2272 4.03098 15.6176 3.64046L16.5505 2.70723C16.941 2.31664 17.5741 2.31653 17.9647 2.70698L21.2929 6.03398Z" fill="currentColor"/>
</svg>
