<svg viewBox="0 0 24 24" xmlns="http://www.w3.org/2000/svg">
<path fill-rule="evenodd" clip-rule="evenodd" d="M9.53033 4.46967C9.82322 4.76256 9.82322 5.23744 9.53033 5.53033L6.81066 8.25H16C17.2598 8.25 18.468 8.75044 19.3588 9.64124C20.2496 10.532 20.75 11.7402 20.75 13C20.75 14.2598 20.2496 15.468 19.3588 16.3588C18.468 17.2496 17.2598 17.75 16 17.75H15C14.5858 17.75 14.25 17.4142 14.25 17C14.25 16.5858 14.5858 16.25 15 16.25H16C16.862 16.25 17.6886 15.9076 18.2981 15.2981C18.9076 14.6886 19.25 13.862 19.25 13C19.25 12.138 18.9076 11.3114 18.2981 10.7019C17.6886 10.0924 16.862 9.75 16 9.75H6.81066L9.53033 12.4697C9.82322 12.7626 9.82322 13.2374 9.53033 13.5303C9.23744 13.8232 8.76256 13.8232 8.46967 13.5303L4.46967 9.53033C4.17678 9.23744 4.17678 8.76256 4.46967 8.46967L8.46967 4.46967C8.76256 4.17678 9.23744 4.17678 9.53033 4.46967Z" fill="currentColor"/>
</svg>
