<svg viewBox="0 0 24 24" xmlns="http://www.w3.org/2000/svg">
<path fill-rule="evenodd" clip-rule="evenodd" d="M5 18.75C4.86193 18.75 4.75 18.8619 4.75 19C4.75 19.1381 4.86193 19.25 5 19.25C5.13807 19.25 5.25 19.1381 5.25 19C5.25 18.8619 5.13807 18.75 5 18.75ZM3.25 19C3.25 18.0335 4.0335 17.25 5 17.25C5.9665 17.25 6.75 18.0335 6.75 19C6.75 19.9665 5.9665 20.75 5 20.75C4.0335 20.75 3.25 19.9665 3.25 19Z" fill="currentColor"/>
<path fill-rule="evenodd" clip-rule="evenodd" d="M3.25 4C3.25 3.58579 3.58579 3.25 4 3.25C8.44238 3.25 12.7028 5.01473 15.844 8.15596C18.9853 11.2972 20.75 15.5576 20.75 20C20.75 20.4142 20.4142 20.75 20 20.75C19.5858 20.75 19.25 20.4142 19.25 20C19.25 15.9554 17.6433 12.0766 14.7834 9.21662C11.9234 6.35669 8.04455 4.75 4 4.75C3.58579 4.75 3.25 4.41421 3.25 4Z" fill="currentColor"/>
<path fill-rule="evenodd" clip-rule="evenodd" d="M3.25 11C3.25 10.5858 3.58579 10.25 4 10.25C6.58586 10.25 9.06581 11.2772 10.8943 13.1057C12.7228 14.9342 13.75 17.4141 13.75 20C13.75 20.4142 13.4142 20.75 13 20.75C12.5858 20.75 12.25 20.4142 12.25 20C12.25 17.812 11.3808 15.7135 9.83363 14.1664C8.28646 12.6192 6.18804 11.75 4 11.75C3.58579 11.75 3.25 11.4142 3.25 11Z" fill="currentColor"/>
</svg>
