<svg viewBox="0 0 24 24" xmlns="http://www.w3.org/2000/svg">
<path d="M17.9 10.9C14.7 8.99999 9.35015 8.79999 6.30002 9.75013C6.06795 9.82306 5.81635 9.80086 5.60068 9.68832C5.38502 9.57579 5.22282 9.38219 5.14988 9.15013C5.07695 8.91806 5.09915 8.66646 5.21168 8.45079C5.32422 8.23513 5.51782 8.07293 5.74988 7.99999C9.30001 6.94986 15.1499 7.15013 18.8499 9.35013C19.0657 9.47873 19.2231 9.68639 19.2884 9.92899C19.3538 10.1717 19.3221 10.4302 19.2 10.6499C19.0452 10.8348 18.8313 10.9607 18.5945 11.0063C18.3577 11.0518 18.1124 11.0143 17.9 10.9ZM17.8 13.7C17.7484 13.7863 17.6801 13.8615 17.599 13.9211C17.5179 13.9805 17.4257 14.0232 17.3279 14.0465C17.23 14.0699 17.1285 14.0733 17.0292 14.0568C16.93 14.0402 16.8351 14.0039 16.7501 13.9501C14.0501 12.3 9.94988 11.8 6.80002 12.8C6.70422 12.8317 6.60308 12.844 6.50248 12.8362C6.40195 12.8283 6.30388 12.8005 6.21415 12.7544C6.12448 12.7083 6.04482 12.6447 5.97995 12.5674C5.91508 12.4901 5.86628 12.4007 5.83635 12.3044C5.80642 12.208 5.79602 12.1067 5.80575 12.0063C5.81542 11.9058 5.84508 11.8083 5.89288 11.7195C5.94068 11.6307 6.00575 11.5522 6.08422 11.4888C6.16268 11.4254 6.25302 11.3783 6.34988 11.3501C10 10.2499 14.5 10.8 17.6 12.7C17.6804 12.7511 17.7497 12.818 17.8035 12.8966C17.8574 12.9751 17.8949 13.0639 17.9135 13.1573C17.9322 13.2507 17.9318 13.347 17.9123 13.4403C17.8928 13.5335 17.8546 13.6219 17.8 13.7ZM16.6 16.4501C16.5597 16.5216 16.5049 16.5839 16.4393 16.6331C16.3737 16.6824 16.2986 16.7175 16.2187 16.7363C16.1389 16.7551 16.056 16.7571 15.9753 16.7423C15.8946 16.7275 15.8179 16.6961 15.7499 16.6501C13.4 15.2003 10.4499 14.9 6.94988 15.7003C6.87108 15.7199 6.78921 15.7239 6.70888 15.712C6.62855 15.7001 6.55135 15.6724 6.48168 15.6306C6.41202 15.5888 6.35128 15.5337 6.30295 15.4685C6.25461 15.4032 6.21962 15.3291 6.19988 15.2503C6.18022 15.1715 6.17622 15.0896 6.18815 15.0093C6.20008 14.9289 6.22775 14.8517 6.26955 14.7821C6.31135 14.7124 6.36641 14.6517 6.43168 14.6033C6.49695 14.555 6.57108 14.5199 6.64988 14.5003C10.4499 13.6499 13.7501 14 16.3501 15.6C16.4251 15.6365 16.4917 15.6882 16.5456 15.7519C16.5995 15.8155 16.6395 15.8898 16.6631 15.9698C16.6866 16.0498 16.6932 16.1339 16.6824 16.2166C16.6715 16.2993 16.6433 16.3789 16.6 16.4501ZM12 2C10.0222 2 8.08881 2.58647 6.44435 3.68533C4.79982 4.78413 3.51809 6.34593 2.76122 8.17313C2.00435 10.0004 1.80629 12.0111 2.19215 13.9509C2.57802 15.8907 3.53042 17.6725 4.92895 19.0711C6.32748 20.4696 8.10928 21.422 10.0491 21.8078C11.9889 22.1937 13.9996 21.9956 15.8269 21.2388C17.6541 20.4819 19.2159 19.2002 20.3147 17.5557C21.4135 15.9112 22 13.9778 22 12C21.999 9.34813 20.9451 6.8052 19.07 4.93C17.1948 3.05487 14.6519 2.001 12 2Z" fill="currentColor"/>
</svg>
