<svg viewBox="0 0 24 24" xmlns="http://www.w3.org/2000/svg">
<path fill-rule="evenodd" clip-rule="evenodd" d="M9.528 1.718C9.63312 1.8231 9.70465 1.95706 9.73349 2.10288C9.76234 2.2487 9.7472 2.3998 9.69 2.537C9.23282 3.63422 8.99828 4.81136 9 6C9 8.38695 9.94821 10.6761 11.636 12.364C13.3239 14.0518 15.6131 15 18 15C19.1886 15.0017 20.3658 14.7672 21.463 14.31C21.6001 14.2529 21.7511 14.2378 21.8968 14.2666C22.0425 14.2954 22.1763 14.3668 22.2814 14.4718C22.3865 14.5767 22.458 14.7105 22.487 14.8562C22.5159 15.0019 22.501 15.1528 22.444 15.29C21.646 17.2033 20.2997 18.8376 18.5747 19.9871C16.8496 21.1367 14.823 21.7501 12.75 21.75C6.951 21.75 2.25 17.049 2.25 11.25C2.25 6.882 4.917 3.138 8.71 1.556C8.84707 1.49902 8.99797 1.484 9.14359 1.51284C9.28921 1.54168 9.42299 1.61308 9.528 1.718Z" fill="currentColor"/>
</svg>
