<svg viewBox="0 0 24 24" xmlns="http://www.w3.org/2000/svg">
<path d="M20.7473 7.48074C20.757 7.67576 20.7605 7.87319 20.7605 8.06822C20.7605 14.0754 16.2207 21 7.91923 21C5.36891 21 2.99793 20.2476 1 18.9571C2.18175 19.101 3.38008 19.0089 4.5265 18.6863C5.67292 18.3637 6.74494 17.8166 7.6813 17.0766C6.73963 17.0587 5.82706 16.7449 5.07117 16.1792C4.31529 15.6135 3.75388 14.8241 3.46543 13.9213C4.14225 14.0488 4.83881 14.022 5.50402 13.8431C4.48248 13.6345 3.56396 13.0768 2.90413 12.2643C2.24431 11.4519 1.88376 10.4347 1.88359 9.38523V9.32865C2.51034 9.67969 3.21132 9.87491 3.92816 9.89806C2.97147 9.25592 2.29427 8.27036 2.03474 7.14258C1.77521 6.01479 1.95293 4.8298 2.53163 3.82946C3.66486 5.2337 5.07879 6.38223 6.6816 7.20042C8.28439 8.01862 10.0402 8.4882 11.835 8.57865C11.7574 8.2387 11.7184 7.89096 11.719 7.54213C11.719 6.94555 11.8357 6.35482 12.0625 5.80366C12.2893 5.25251 12.6217 4.75173 13.0407 4.32994C13.4598 3.90815 13.9572 3.5736 14.5047 3.34541C15.0521 3.11722 15.6389 2.99985 16.2314 3.00001C16.8489 2.99899 17.46 3.12574 18.0269 3.37238C18.5937 3.61902 19.1042 3.98029 19.5266 4.43379C20.5371 4.23239 21.5062 3.8595 22.3927 3.33106C22.0555 4.38348 21.3501 5.27676 20.4079 5.8447C21.3024 5.73792 22.1762 5.49688 23 5.12962C22.3949 6.04266 21.6319 6.83899 20.7473 7.48074Z" fill="currentColor"/>
</svg>
